<svg width="100" height="100" viewBox="0 0 100 100" fill="none" xmlns="http://www.w3.org/2000/svg">
<path d="M47.8906 85.5208C47.5781 84.3229 46.9531 82.9688 45.8073 81.875C41.7187 77.9948 39.9219 73.099 39.5052 67.5781C39.4792 67.2917 39.4531 67.0052 39.4531 66.6927C39.4531 65.5729 40.0521 64.8438 40.9896 64.8177C41.901 64.8177 42.4479 65.4688 42.5781 66.5625C42.8125 68.3333 43.0208 70.1042 43.3854 71.849C43.9323 74.4792 45.2604 76.7708 47.1615 78.6719C49.0104 80.5208 50.4167 82.6302 51.1198 85.1823C51.25 85.6771 51.4583 85.9115 52.0573 85.9115C58.5937 85.8854 65.1562 85.8854 71.6927 85.8854C71.7969 85.8854 71.875 85.8594 72.1094 85.8333C72.0312 83.2552 73.5417 81.3281 74.8698 79.2708C75.3906 78.4375 75.7292 77.3438 75.7552 76.3542C75.8594 72.4479 75.8073 68.5417 75.7812 64.6354C75.7812 63.4896 75.3125 62.8646 74.4531 62.8385C73.6458 62.7865 73.125 63.3333 72.9427 64.4271C72.9167 64.6094 72.9167 64.8177 72.8906 65C72.7604 65.8854 72.1615 66.4323 71.3281 66.4323C70.4948 66.4323 69.8437 65.8594 69.7917 64.974C69.7396 63.9583 69.7656 62.9688 69.7656 61.9531C69.7396 60.625 69.0885 59.8438 67.9948 59.8698C66.901 59.8698 66.25 60.6771 66.224 61.9792C66.224 62.5 66.25 63.0208 66.224 63.5417C66.1719 64.4792 65.5469 65.1302 64.7135 65.1563C63.8542 65.1823 63.151 64.5052 63.125 63.5417C63.099 62.2656 63.125 60.9896 63.099 59.7396C63.099 58.6198 62.474 57.8906 61.5365 57.8646C60.599 57.8385 59.9479 58.5417 59.9219 59.6615C59.8958 60.625 59.9219 61.6146 59.9219 62.6042C59.8958 63.8542 59.2969 64.5052 58.3073 64.4792C57.3437 64.4531 56.8229 63.8021 56.8229 62.5781C56.8229 55.6771 56.8229 48.776 56.8229 41.875C56.8229 41.4583 56.8229 41.0156 56.7448 40.625C56.5625 39.6615 55.7292 39.0365 54.7917 39.0885C53.8281 39.1406 53.099 39.8438 52.9948 40.8073C52.9687 41.1719 52.9687 41.5104 52.9687 41.875C52.9687 50.0781 52.9687 58.2813 52.9687 66.4844C52.9687 68.099 52.6823 69.6615 51.875 71.0938C51.3542 72.0573 50.5208 72.3958 49.7135 71.9792C48.8802 71.5885 48.724 70.7552 49.0625 69.7136C49.4271 68.5417 49.8177 67.3438 49.8177 66.1458C49.8698 57.8385 49.8438 49.5313 49.8698 41.25C49.8698 38.125 52.0833 35.9115 55.026 35.9635C57.5 36.0156 59.5833 37.8646 59.8958 40.3125C59.9479 40.8073 59.974 41.276 59.974 41.7708C59.974 45.7813 59.974 49.7917 59.974 53.776C59.974 54.1406 59.974 54.4792 59.974 54.9479C62.474 54.4271 64.4271 55.1042 65.7552 57.2135C69.4531 56.3281 70.625 56.7969 72.7344 59.8438C73.6719 59.8438 74.5833 59.7135 75.4167 59.8698C77.474 60.2344 78.9844 62.0573 78.9844 64.1667C79.0104 68.4375 79.0104 72.7083 78.9844 76.9531C78.9844 78.4115 78.4635 79.7656 77.6562 80.9635C77.1354 81.7188 76.5625 82.4219 76.1458 83.2292C75.7292 84.0104 75.4948 84.8958 75.1823 85.7292C77.3958 86.3021 77.474 86.4323 77.474 88.5938C77.474 90.1563 77.474 91.7188 77.474 93.2813C77.474 94.5833 76.875 95.3125 75.8854 95.2865C74.9219 95.2604 74.349 94.5573 74.349 93.3073C74.349 91.9271 74.349 90.5208 74.349 89.0885C65.9896 89.0885 57.7344 89.0885 49.349 89.0885C49.349 90.5729 49.349 92.0573 49.349 93.5417C49.349 94.401 48.9844 95 48.1771 95.2344C47.3958 95.4688 46.3542 94.9479 46.3281 94.1146C46.224 91.7969 46.1719 89.4792 46.3542 87.1875C46.25 86.6406 47.2135 86.1719 47.8906 85.5208Z" fill="#3BACB6"/>
<path d="M42.6823 37.9688C42.4739 36.9531 42.2916 36.0156 42.0833 35.1042C41.7708 33.6979 42.1354 32.5521 43.2812 31.6406C44.375 30.7552 45.4427 29.8698 46.5104 28.9583C47.5 28.125 47.6041 27.4219 46.8489 26.3281C44.1406 22.4479 41.4583 18.5938 38.7239 14.7396C37.8906 13.5417 37.4218 12.2917 37.4739 10.8333C37.526 9.37501 37.4739 7.91667 37.5 6.4323C37.5 5.33855 38.0989 4.66147 39.0364 4.66147C39.9739 4.63542 40.625 5.33855 40.625 6.48438C40.651 7.94272 40.5729 9.42709 40.651 10.8854C40.7031 11.5625 40.8854 12.3177 41.276 12.8646C43.9062 16.6927 46.5885 20.4948 49.2448 24.2969C51.1719 27.0573 50.8333 29.4531 48.2812 31.5625C47.3958 32.2917 46.5364 33.0208 45.651 33.724C45.2344 34.0365 45.0781 34.349 45.2343 34.8698C45.4687 35.6771 45.625 36.5104 45.7552 37.3438C46.0156 38.9583 45.2604 40.4167 43.6979 40.8854C40.625 41.849 37.5521 42.7344 34.4531 43.6458C33.5416 43.9063 32.7083 43.4115 32.4739 42.5521C32.2656 41.7188 32.7343 40.9115 33.6979 40.625C36.3281 39.8177 38.9843 39.0625 41.6406 38.2813C41.9271 38.1771 42.2396 38.099 42.6823 37.9688Z" fill="#3BACB6"/>
<path d="M29.3229 61.9531C24.0885 61.875 19.2187 60.3125 14.4792 58.2813C13.8542 58.0208 13.2292 57.7344 12.6042 57.4219C11.4844 56.9011 11.0677 56.0938 11.4583 55.2083C11.875 54.2969 12.7083 54.1146 13.8542 54.5573C17.1094 55.7552 20.3385 57.0833 23.6458 58.0469C26.7188 58.9583 29.9219 59.1406 33.099 58.3854C33.4375 58.3073 33.8021 58.2031 34.1146 58.0729C35.8333 57.4479 35.9115 57.3698 35.8854 55.5729C35.8854 54.3229 36.25 53.2031 37.0312 52.2396C37.3698 51.7969 37.6562 51.3281 38.0469 50.9375C39.4271 49.5313 40.026 47.9167 39.8177 45.9115C39.6875 44.7917 40.4427 44.0885 41.3802 44.1146C42.2917 44.1406 42.7865 44.8177 42.9167 45.9115C43.2292 48.5677 42.4479 50.8333 40.5729 52.7604C39.4531 53.9063 38.8021 55.2344 38.9323 56.9531C39.0365 58.2552 38.3333 59.3229 37.1875 60.0261C34.8177 61.5625 32.1354 61.9531 29.3229 61.9531Z" fill="#3BACB6"/>
<path d="M52.8645 90.3906C53.3854 90.3906 53.9062 90.3386 54.427 90.3906C55.2083 90.4948 55.625 91.0156 55.677 91.7708C55.7291 92.5781 55.3385 93.2552 54.5312 93.3333C53.4114 93.4635 52.2656 93.4635 51.1458 93.3333C50.3385 93.2552 49.9479 92.6042 50 91.7708C50.026 90.9896 50.4687 90.4688 51.25 90.3646C51.7448 90.3385 52.3177 90.3906 52.8645 90.3906Z" fill="#3BACB6"/>
</svg>
