<svg width="100" height="100" viewBox="0 0 100 100" fill="none" xmlns="http://www.w3.org/2000/svg">
<g clip-path="url(#clip0_2_135)">
<path d="M40.2344 100C39.7461 99.4141 39.1797 98.8672 38.8086 98.2227C37.4805 95.918 36.2109 93.5742 34.9414 91.2109C34.6289 90.6445 34.3359 90.5273 33.7109 90.7031C30.9961 91.5039 28.2813 92.2461 25.5469 93.0273C24.668 93.2812 23.8672 93.2617 23.2227 92.5391C22.5781 91.8164 22.6563 91.0156 23.0078 90.1758C26.3672 82.1875 29.707 74.1797 33.0469 66.1719C33.1836 65.8398 33.3203 65.5078 33.5156 65.0391C32.2266 64.9023 31.0156 64.7461 29.8047 64.6484C25.293 64.3555 22.3047 61.543 21.8164 57.0703C21.5625 54.7656 21.4648 52.4609 21.0742 50.1953C20.8984 49.1016 20.3906 47.9492 19.7461 47.0312C18.418 45.1953 16.875 43.4961 15.4492 41.7383C12.793 38.4766 12.793 34.4727 15.4492 31.1914C16.7188 29.6289 17.9688 28.0273 19.3164 26.543C20.5664 25.1758 21.1523 23.6133 21.2695 21.7773C21.4063 19.707 21.6406 17.6367 21.8555 15.5664C22.2266 11.7578 25.2344 8.75 29.043 8.37891C31.4062 8.14453 33.7695 7.89062 36.1328 7.67578C37.4219 7.55859 38.5156 7.07031 39.4922 6.25C40.5859 5.33203 41.7188 4.43359 42.793 3.51562C44.5508 2.01172 46.3086 0.527344 48.6328 0C49.4727 0 50.332 0 51.1719 0C53.418 0.488281 55.1562 1.79687 56.8359 3.28125C57.8516 4.17969 58.9844 4.96094 59.9805 5.89844C61.3477 7.16797 62.9492 7.67578 64.7656 7.8125C66.9141 7.96875 69.043 8.18359 71.1719 8.41797C74.9219 8.84766 77.7734 11.9922 78.125 15.957C78.3203 18.1836 78.5352 20.4297 78.75 22.6562C78.8672 23.8867 79.3164 24.9609 80.1367 25.918C81.6211 27.6953 83.0859 29.4727 84.5508 31.2695C87.0898 34.4336 87.1094 38.418 84.6094 41.6016C83.5742 42.9102 82.5977 44.2578 81.4258 45.4297C79.375 47.4609 78.5742 49.9023 78.5156 52.7344C78.4766 54.3945 78.2812 56.0547 78.0273 57.6758C77.4023 61.6602 74.5117 64.2773 70.5078 64.6289C69.1797 64.7461 67.8516 64.8828 66.4258 65.0195C66.6016 65.4883 66.7383 65.8789 66.8945 66.25C70.2148 74.1992 73.5352 82.1289 76.8555 90.0781C77.0312 90.5078 77.1875 91.0156 77.168 91.4844C77.1094 92.7539 75.8984 93.457 74.5117 93.0859C71.7969 92.3438 69.0625 91.6016 66.3672 90.7617C65.5859 90.5273 65.2734 90.7227 64.9414 91.3867C63.6914 93.7305 62.4219 96.0742 61.0938 98.3789C60.7422 99.0039 60.1367 99.4727 59.6484 100C59.2578 100 58.8672 100 58.4766 100C57.9883 99.375 57.3633 98.8281 57.0508 98.1445C56.1914 96.3281 55.4688 94.4336 54.6875 92.5781C53.7305 90.2734 52.7539 87.9688 51.7969 85.6445C51.3086 84.4727 51.8359 83.457 52.9102 83.3789C53.8086 83.3203 54.2578 83.8672 54.5703 84.6094C55.8789 87.7539 57.1875 90.8984 58.5156 94.043C58.7109 94.5312 58.9453 95 59.2188 95.6641C60.3906 93.5547 61.4453 91.6211 62.5195 89.707C63.6328 87.6758 64.7266 87.2266 66.9336 87.8516C69.082 88.457 71.2305 89.043 73.5156 89.6875C73.3203 89.1992 73.2031 88.8477 73.0469 88.4961C70.0586 81.3672 67.0898 74.2383 64.1016 67.1094C63.2617 65.1172 62.8125 65 60.9961 66.3477C60.6641 66.6016 60.332 66.875 60.0195 67.1484C58.3008 68.5547 56.582 69.9219 54.9023 71.3672C54.3945 71.8164 53.8867 72.3828 53.6328 72.9883C50.0781 81.3867 46.582 89.8242 43.0078 98.2227C42.7148 98.9062 42.0117 99.4141 41.5039 100.02C41.0156 100 40.625 100 40.2344 100ZM49.8633 69.9609C51.1523 69.9805 52.2461 69.5898 53.1836 68.8281C55 67.3438 56.8164 65.8594 58.6133 64.3555C60.1172 63.1055 61.8164 62.4414 63.7695 62.2852C65.9766 62.1289 68.1836 61.9141 70.3711 61.6602C73.1445 61.3477 74.8438 59.6094 75.1562 56.8359C75.332 55.2148 75.5469 53.5938 75.5859 51.9727C75.6836 48.8867 76.582 46.1914 78.7891 43.9453C79.9805 42.7148 81.0156 41.3086 82.0898 39.9609C83.9648 37.6562 83.9453 35.2344 82.0898 32.9492C80.625 31.1719 79.1602 29.375 77.6758 27.5977C76.5234 26.1914 75.9375 24.5898 75.7812 22.7734C75.5664 20.3711 75.3906 17.9688 75.0586 15.5859C74.7266 13.1445 72.8906 11.5234 70.4492 11.2891C68.3203 11.0938 66.1719 10.8398 64.043 10.6836C61.7969 10.5469 59.8828 9.76562 58.2031 8.28125C56.6406 6.91406 55 5.60547 53.3984 4.29688C51.1914 2.5 48.75 2.5 46.543 4.27734C44.7852 5.72266 43.0273 7.16797 41.2695 8.61328C39.9414 9.72656 38.4375 10.4297 36.6797 10.5859C34.2773 10.8203 31.8945 11.0742 29.4922 11.2891C26.9141 11.543 25.0195 13.3789 24.7852 15.9375C24.5898 18.0664 24.3359 20.2148 24.1797 22.3438C24.0234 24.5703 23.2422 26.4844 21.7578 28.1641C20.3711 29.7266 19.082 31.3672 17.7734 32.9688C15.9375 35.2148 15.957 37.6758 17.7734 39.9023C19.2578 41.7188 20.7617 43.5156 22.2461 45.332C23.2617 46.5625 23.8867 47.9688 24.043 49.5898C24.2773 52.0117 24.5313 54.4336 24.7656 56.875C25 59.375 26.6211 61.1914 29.1016 61.543C30.8594 61.7969 32.6562 62.0117 34.4336 62.0703C37.5195 62.1875 40.1953 63.0859 42.4609 65.2734C43.7109 66.4844 45.1563 67.5195 46.5039 68.6523C47.5391 69.4922 48.6328 70 49.8633 69.9609ZM26.5039 89.6875C28.6914 89.0625 30.7422 88.4766 32.793 87.9102C35.332 87.1875 36.3086 87.5977 37.5781 89.9023C38.6133 91.7773 39.6484 93.6523 40.7813 95.7031C43.9844 88.0664 47.1094 80.5859 50.3125 72.9297C47.3633 73.0469 45.3125 71.6211 43.3594 69.9219C42.0703 68.7891 40.7227 67.6953 39.375 66.6406C38.8477 66.2305 38.2227 65.918 37.6367 65.6055C36.9531 65.2344 36.582 65.4492 36.2695 66.2109C33.1445 73.7305 30 81.25 26.8555 88.7695C26.7383 89.0039 26.6602 89.2773 26.5039 89.6875Z" fill="#3BACB6"/>
<path d="M73.1054 36.5234C73.0663 50.1953 61.2304 60.918 47.6562 59.5312C35.6054 58.3008 26.3476 47.9492 26.8358 35.8203C27.2069 26.582 31.7382 19.7852 40.0194 15.5469C40.3905 15.3711 40.8983 15.1172 41.1913 15.2539C41.6991 15.4688 42.2655 15.8984 42.4804 16.3672C42.7733 17.0703 42.3046 17.6367 41.6601 18.0469C40.1562 18.9648 38.5741 19.7656 37.2265 20.8398C30.996 25.7617 28.203 34.3359 30.5663 41.9922C33.1054 50.1953 38.7304 55.2148 47.2655 56.4258C60.1171 58.2422 71.0546 47.7539 70.0976 34.8047C69.2772 23.8477 59.3554 15.4102 48.4179 16.3477C48.0663 16.3867 47.6952 16.4063 47.3437 16.4063C46.4257 16.4063 45.7812 15.8984 45.7226 15.0781C45.6444 14.2383 46.2304 13.5742 47.1874 13.457C50.371 13.0664 53.496 13.3398 56.5429 14.2383C66.3866 17.207 73.1249 26.2695 73.1054 36.5234Z" fill="#3BACB6"/>
<path d="M44.9024 38.1641C45.6641 37.3633 46.25 36.6797 46.8945 36.0547C49.8242 33.1055 52.7539 30.1562 55.7227 27.2266C58.2422 24.7461 62.2461 25.625 63.3203 28.8867C63.8672 30.5664 63.5742 32.1484 62.3438 33.418C57.5977 38.2227 52.8125 43.0273 47.9883 47.7734C46.2109 49.5312 43.5547 49.4531 41.7383 47.6953C39.5313 45.5469 37.3242 43.3594 35.1758 41.1328C33.418 39.3164 33.4766 36.5625 35.2149 34.8047C36.9531 33.0469 39.668 32.9687 41.543 34.707C42.6563 35.7227 43.6719 36.875 44.9024 38.1641ZM44.9219 46.1719C45.4297 45.8398 45.957 45.5859 46.3477 45.1953C50.8399 40.7227 55.332 36.2305 59.8047 31.7578C59.9805 31.582 60.1953 31.3867 60.3125 31.1719C60.7227 30.4883 60.7031 29.7852 60.1172 29.2188C59.5313 28.6523 58.8477 28.5742 58.1641 29.043C57.8906 29.2187 57.6758 29.4727 57.4414 29.707C53.7109 33.4375 50 37.168 46.2695 40.8789C45.2344 41.9141 44.5703 41.9141 43.5352 40.8789C42.2461 39.5898 40.9766 38.3008 39.668 37.0312C38.8867 36.2695 37.9883 36.2305 37.3242 36.8945C36.6797 37.5391 36.6992 38.4766 37.4609 39.2383C39.5117 41.3281 41.582 43.3984 43.6719 45.4492C43.9844 45.7031 44.4336 45.8594 44.9219 46.1719Z" fill="#3BACB6"/>
</g>
<defs>
<clipPath id="clip0_2_135">
<rect width="100" height="100" fill="white"/>
</clipPath>
</defs>
</svg>
