<svg width="100" height="100" viewBox="0 0 100 100" fill="none" xmlns="http://www.w3.org/2000/svg">
<g clip-path="url(#clip0_1_109)">
<path d="M0 44.3229C3.30729 40.1563 6.61458 35.9636 9.94792 31.7969C11.901 29.349 13.8542 26.9271 15.7812 24.4792C16.3802 23.724 17.0833 23.4115 18.0469 23.4115C39.349 23.4375 60.651 23.4375 81.9531 23.4115C82.9688 23.4115 83.6719 23.8021 84.2708 24.5573C89.2708 30.8333 94.2969 37.1094 99.3229 43.3854C99.5573 43.6979 99.7656 44.0104 100 44.3229C100 44.7136 100 45.1042 100 45.4948C99.6875 45.9115 99.401 46.3281 99.0365 46.7188C83.3854 64.0365 67.7344 81.3542 52.0833 98.6458C51.6406 99.1406 51.0938 99.5573 50.599 100C50.2083 100 49.8177 100 49.4271 100C48.9583 99.5833 48.4635 99.2188 48.0729 98.776C34.2188 83.5156 20.3906 68.2292 6.58854 52.9427C4.375 50.4948 2.1875 47.9948 0 45.4948C0 45.1042 0 44.7396 0 44.3229ZM29.5833 46.9011C36.4062 62.3698 43.151 77.6823 50 93.2031C56.875 77.6302 63.6198 62.3177 70.4167 46.9011C56.7448 46.9011 43.2552 46.9011 29.5833 46.9011ZM69.8698 42.9167C69.8177 42.7604 69.7917 42.6563 69.7396 42.5781C66.7969 37.6563 63.8802 32.7604 60.8854 27.8646C60.7031 27.5781 60.1562 27.3698 59.7917 27.3698C53.2812 27.3438 46.7708 27.3698 40.2604 27.3177C39.5833 27.3177 39.2188 27.5521 38.8802 28.125C36.1198 32.7604 33.3333 37.3958 30.5729 42.0313C30.4167 42.2917 30.2604 42.5781 30.0521 42.9427C43.3854 42.9167 56.5885 42.9167 69.8698 42.9167ZM6.35417 46.875C18.6719 60.4948 30.8073 73.9063 42.9427 87.3177C42.9948 87.0573 42.9427 86.875 42.8646 86.6927C37.1094 73.6458 31.3542 60.599 25.625 47.5521C25.3646 46.9531 25.026 46.849 24.4531 46.849C18.75 46.875 13.0729 46.849 7.36979 46.849C7.10937 46.875 6.84896 46.875 6.35417 46.875ZM93.6458 46.875C93.0729 46.875 92.7344 46.875 92.4219 46.875C86.901 46.875 81.3542 46.901 75.8333 46.849C75 46.849 74.5833 47.0573 74.2448 47.8386C69.5573 58.5156 64.8438 69.1927 60.1562 79.8698C59.0625 82.3177 57.9948 84.7917 56.901 87.2396C56.9531 87.2656 57.0052 87.2917 57.0573 87.3438C69.1927 73.9063 81.3281 60.4948 93.6458 46.875ZM34.8177 27.3438C29.401 27.3438 24.2188 27.3438 19.0104 27.3698C18.6719 27.3698 18.2552 27.6823 18.0208 27.9948C15.2604 31.4063 12.526 34.8438 9.76562 38.2813C8.56771 39.7917 7.34375 41.3021 6.04167 42.9427C6.32812 42.9688 6.43229 42.9948 6.5625 42.9948C12.6562 42.9948 18.724 43.0208 24.8177 42.9688C25.1562 42.9688 25.625 42.6302 25.8333 42.3177C27.6302 39.4011 29.375 36.4844 31.1198 33.5417C32.3177 31.5104 33.5417 29.5052 34.8177 27.3438ZM93.9844 42.9688C89.8177 37.7604 85.8333 32.7604 81.7969 27.7865C81.5885 27.5261 81.0937 27.3698 80.7031 27.3698C75.8333 27.3438 70.9375 27.3438 66.0677 27.3438C65.8333 27.3438 65.5729 27.3438 65.2083 27.3438C65.3125 27.5781 65.3646 27.7083 65.4427 27.8125C68.3594 32.6823 71.276 37.5781 74.2448 42.4219C74.4271 42.7344 75.026 42.9427 75.4167 42.9427C81.1719 42.9688 86.9271 42.9688 92.6823 42.9688C93.0469 42.9688 93.4115 42.9688 93.9844 42.9688Z" fill="#3BACB6"/>
<path d="M50.573 0C51.6146 0.572917 51.9792 1.45833 51.9532 2.65625C51.9011 6.22396 51.9271 9.79167 51.9271 13.3594C51.9271 14.5833 51.3282 15.3906 50.3125 15.599C49.1927 15.8073 48.0469 14.974 48.0469 13.75C47.9948 9.79167 48.0209 5.83333 48.0469 1.875C48.0469 0.9375 48.724 0.46875 49.4011 0C49.7917 0 50.2084 0 50.573 0Z" fill="#3BACB6"/>
<path d="M30.3645 3.64581C31.0416 4.03644 31.5885 4.24477 31.9531 4.60935C34.5052 7.10936 37.0312 9.6354 39.5312 12.1875C40.4427 13.0989 40.4427 14.2448 39.6354 15.0521C38.8281 15.8594 37.6823 15.8333 36.7708 14.9219C34.2187 12.4219 31.7187 9.86977 29.1927 7.34373C28.5416 6.69269 28.2031 5.85935 28.75 5.05206C29.1145 4.50519 29.7916 4.1406 30.3645 3.64581Z" fill="#3BACB6"/>
<path d="M71.5105 6.09376C71.3802 6.35417 71.25 6.87501 70.9375 7.18751C68.3334 9.84376 65.7292 12.4479 63.099 15.0521C62.2657 15.8594 61.1459 15.8073 60.3907 15.0521C59.6355 14.2969 59.5313 13.151 60.3386 12.3438C62.9427 9.68751 65.599 7.03126 68.2552 4.42709C68.8282 3.85417 69.5834 3.75001 70.3386 4.11459C71.0677 4.45313 71.4323 5.05209 71.5105 6.09376Z" fill="#3BACB6"/>
<path d="M46.6927 54.6875C44.375 54.6875 42.0833 54.6875 39.7656 54.6875C38.3333 54.6875 37.4739 53.9323 37.5 52.7083C37.526 51.5365 38.3593 50.7812 39.7135 50.7812C44.3229 50.7812 48.9583 50.7812 53.5677 50.7812C54.9739 50.7812 55.8593 51.5625 55.8593 52.7604C55.8333 53.9323 54.9479 54.6875 53.5156 54.6875C51.2239 54.6875 48.9583 54.6875 46.6927 54.6875Z" fill="#3BACB6"/>
<path d="M63.6719 52.7344C63.6719 53.8021 62.7344 54.7135 61.6667 54.6875C60.625 54.6615 59.7656 53.776 59.7656 52.7344C59.7656 51.6667 60.6771 50.7552 61.7708 50.7812C62.8125 50.8073 63.6719 51.6927 63.6719 52.7344Z" fill="#3BACB6"/>
</g>
<defs>
<clipPath id="clip0_1_109">
<rect width="100" height="100" fill="white"/>
</clipPath>
</defs>
</svg>
